<?xml version="1.0" encoding="UTF-8"?>
<svg version="1.1" xmlns="http://www.w3.org/2000/svg" width="666" height="374">
<path d="M0 0 C1.9296875 0.71875 1.9296875 0.71875 4 2 C4.7578125 4.09375 4.7578125 4.09375 5.125 6.5 C5.64759364 10.17211988 5.64759364 10.17211988 8 13 C10.06874034 13.6425235 10.06874034 13.6425235 12 14 C12.66 12.68 13.32 11.36 14 10 C14.43570313 10.40992187 14.87140625 10.81984375 15.3203125 11.2421875 C18.31831627 13.9546671 20.38173504 15.81335397 24.3125 17 C25.199375 17.33 26.08625 17.66 27 18 C27.72693904 19.97888961 28.39816251 21.97954558 29 24 C31.03243548 24.96877057 31.03243548 24.96877057 33 25 C33.33 26.32 33.66 27.64 34 29 C34.99 29 35.98 29 37 29 C37 29.66 37 30.32 37 31 C39.31 31.33 41.62 31.66 44 32 C44 33.32 44 34.64 44 36 C44.99 34.35 45.98 32.7 47 31 C47.66 31.33 48.32 31.66 49 32 C49.73075648 34.3140622 50.40138258 36.64828869 51 39 C51.4125 38.195625 51.825 37.39125 52.25 36.5625 C54 34 54 34 56.1875 33.1875 C56.785625 33.125625 57.38375 33.06375 58 33 C58 37 58 37 56.25 38.921875 C55.13625 39.82679687 55.13625 39.82679687 54 40.75 C52.88625 41.67039062 52.88625 41.67039062 51.75 42.609375 C51.1725 43.06828125 50.595 43.5271875 50 44 C51.83284443 45.12516085 51.83284443 45.12516085 54 46 C54.99 45.67 55.98 45.34 57 45 C60.1875 46.9375 60.1875 46.9375 63 49 C63.4125 48.54625 63.825 48.0925 64.25 47.625 C66 46 66 46 68.0625 45.125 C70.71177751 43.58670984 71.10035344 41.84888077 72 39 C72.66 39 73.32 39 74 39 C74 40.32 74 41.64 74 43 C74.515625 42.7525 75.03125 42.505 75.5625 42.25 C78.70295057 41.92790251 80.73192539 42.85231081 83.375 44.515625 C86.52243784 47.39068841 87.53422697 50.84038806 88 55 C87.6547291 57.67977297 87.1110425 60.14777381 86.34765625 62.73828125 C85.91680652 65.54122497 86.38611638 66.69957542 88 69 C90.55519921 69.81171228 90.55519921 69.81171228 93 70 C92.79375 68.948125 92.5875 67.89625 92.375 66.8125 C91.97805288 62.77687098 92.38200339 61.57662408 94 58 C94.33333541 56.48359709 94.64401737 54.9621174 94.9375 53.4375 C95.52252055 50.56901212 95.80865718 49.23386345 97.6875 46.9375 C99.51933899 44.23335673 98.91758377 42.1286406 98.3984375 39.01953125 C98.20121094 38.01986328 98.20121094 38.01986328 98 37 C97.20110946 32.92565825 96.93135598 30.03709962 98 26 C98.66 26 99.32 26 100 26 C102.03137844 29.37483987 102.2190397 32.03676224 102.3125 35.9375 C102.63524186 40.82717306 102.63524186 40.82717306 105.25 44.9375 C106.1575 45.618125 107.065 46.29875 108 47 C108.886875 47.928125 109.77375 48.85625 110.6875 49.8125 C112.71162149 52.22906662 112.71162149 52.22906662 115 52 C115.66 51.34 116.32 50.68 117 50 C119.625 49.875 119.625 49.875 122 50 C122.0928125 50.928125 122.0928125 50.928125 122.1875 51.875 C122.5896875 52.926875 122.5896875 52.926875 123 54 C124.6635479 54.67441131 126.33066942 55.3400321 128 56 C128.556875 56.763125 129.11375 57.52625 129.6875 58.3125 C133.07167543 62.24546063 137.35237762 63.8432602 142 66 C148.47026489 69.31036808 153.40610957 73.91459775 156 80.75 C157.25482061 83.99126657 157.25482061 83.99126657 159.796875 86.23828125 C161.92992089 87.18375987 161.92992089 87.18375987 165 88 C166.18068834 96.3374761 166.18068834 96.3374761 165.25 99.75 C165.1675 100.4925 165.085 101.235 165 102 C165.763125 102.7425 166.52625 103.485 167.3125 104.25 C170.84432001 107.86395536 171.28806624 111.12272246 172 116 C173.98 115.67 175.96 115.34 178 115 C178.33 115.99 178.66 116.98 179 118 C178.21625 118.4125 177.4325 118.825 176.625 119.25 C173.86973416 121.08684389 173.00134486 121.90493407 172 125 C171.83249586 127.66709069 171.83249586 127.66709069 172 130 C172.66 130 173.32 130 174 130 C174.6875 132.3125 174.6875 132.3125 175 135 C173.63688396 136.77205086 172.16388486 137.87934616 170.37109375 139.19921875 C168.3170868 141.89693158 168.92269421 143.89186924 169.3125 147.1875 C169.49232422 148.81751953 169.49232422 148.81751953 169.67578125 150.48046875 C169.83626953 151.72763672 169.83626953 151.72763672 170 153 C170.99 153.33 171.98 153.66 173 154 C172.67 154.66 172.34 155.32 172 156 C171.01 156 170.02 156 169 156 C169.2310134 157.56541977 169.4857975 159.1273387 169.75 160.6875 C169.95882812 161.99267578 169.95882812 161.99267578 170.171875 163.32421875 C172.80987886 171.84795764 182.26779742 177.07544643 189.7265625 181.03515625 C196.21775231 184.35531965 196.21775231 184.35531965 203 187 C203.33 187.99 203.66 188.98 204 190 C206.16082375 191.06651754 206.16082375 191.06651754 208.75 191.875 C213.26643047 193.57907164 215.84573457 195.24898165 219 199 C219.55300781 199.59941406 220.10601563 200.19882812 220.67578125 200.81640625 C230.8604311 211.96063767 230.8604311 211.96063767 232 219 C231.0625 221.25 231.0625 221.25 230 223 C224.36115707 223.28672083 221.79881716 223.1701277 217 220 C216.09121094 219.44441406 215.18242188 218.88882813 214.24609375 218.31640625 C213.31925781 217.73761719 212.39242188 217.15882813 211.4375 216.5625 C210.50808594 215.98628906 209.57867188 215.41007813 208.62109375 214.81640625 C206.08631606 213.05981664 204.02620535 211.32179295 202 209 C202 208.34 202 207.68 202 207 C201.46375 206.79246094 200.9275 206.58492187 200.375 206.37109375 C197.06492483 204.46017865 194.62558898 201.7953222 192 199.0625 C188.02664289 194.91528615 188.02664289 194.91528615 183.625 191.24609375 C183.08875 190.83488281 182.5525 190.42367187 182 190 C182 189.34 182 188.68 182 188 C181.401875 187.71125 180.80375 187.4225 180.1875 187.125 C178 186 178 186 175 184 C175 183.34 175 182.68 175 182 C174.13375 182.103125 173.2675 182.20625 172.375 182.3125 C167.92462869 181.90042858 166.34567552 179.85776451 163 177 C159.30667032 175.98614479 157.64154542 175.78615153 154 177 C154.04640625 177.9178125 154.0928125 178.835625 154.140625 179.78125 C154.56021358 194.04726171 154.56021358 194.04726171 150 199 C147.52412734 200.77079599 145.0345771 202.26155277 142.33984375 203.67578125 C139.97492729 204.86960162 139.97492729 204.86960162 138.37890625 206.66796875 C137 208 137 208 134 208 C133.67 207.34 133.34 206.68 133 206 C130.84188612 206.94729537 130.84188612 206.94729537 129 209 C124.61165396 208.76903442 122.91712415 207.11159909 120 204 C119.01 203.67 118.02 203.34 117 203 C116.34 205.31 115.68 207.62 115 210 C114.34 210 113.68 210 113 210 C113.020625 208.845 113.04125 207.69 113.0625 206.5 C113.07007769 202.25649453 112.59974765 198.19823356 112 194 C109.36 194 106.72 194 104 194 C103.65336447 209.11263873 103.65336447 209.11263873 106 224 C102 224 102 224 100 223 C100 222.34 100 221.68 100 221 C99.34 221 98.68 221 98 221 C98 222.32 98 223.64 98 225 C97.34 225 96.68 225 96 225 C96.66 216.75 97.32 208.5 98 200 C93.545 201.485 93.545 201.485 89 203 C89.103125 204.051875 89.20625 205.10375 89.3125 206.1875 C89 210 89 210 86.875 212.9375 C84 215 84 215 80.9375 215.625 C78 215 78 215 75.625 212.9375 C73.63178845 209.33438682 73.54028031 207.0608573 74 203 C74.66 202.34 75.32 201.68 76 201 C76.46290221 198.33757179 76.46290221 198.33757179 76.625 195.375 C76.73714844 193.87066406 76.73714844 193.87066406 76.8515625 192.3359375 C76.90054688 191.56507813 76.94953125 190.79421875 77 190 C72.76915097 191.68807908 72.76915097 191.68807908 70 195 C68.35 195 66.7 195 65 195 C63.29737571 198.34284445 63.29737571 198.34284445 63.5 201.9375 C64.2399038 204.98960317 63.10571048 207.1381611 62 210 C59.03 210 56.06 210 53 210 C53.33 211.32 53.66 212.64 54 214 C54.49298297 218.13782425 54.73620823 221.00992686 52.1875 224.4375 C50 226 50 226 47 227 C45.35479513 230.29040975 45.9820824 233.92411241 46.0859375 237.53125 C46.10717682 238.39576782 46.12841614 239.26028564 46.15029907 240.15100098 C46.19667292 241.99379793 46.24560969 243.83653185 46.296875 245.67919922 C46.37314857 248.43315191 46.44123067 251.18720422 46.5078125 253.94140625 C46.75074131 263.48039649 47.09141409 272.99827638 47.76400757 282.51794434 C48.1065845 287.786831 48.1065845 287.786831 47 290 C45.35 290 43.7 290 42 290 C40.21177031 286.15386408 39.75514912 283.15208344 39.77294922 278.92456055 C39.77317581 277.12325935 39.77317581 277.12325935 39.77340698 275.28556824 C39.78372955 273.99894791 39.79405212 272.71232758 39.8046875 271.38671875 C39.80842088 270.04865226 39.81126632 268.71058303 39.81326294 267.37251282 C39.82087384 263.86258301 39.84050018 260.35282055 39.8626709 256.84295654 C39.88318436 253.25665551 39.89227638 249.67032726 39.90234375 246.08398438 C39.92374871 239.05592115 39.95785369 232.02796862 40 225 C39.38125 224.71125 38.7625 224.4225 38.125 224.125 C36 223 36 223 34 221 C33.855625 221.969375 33.71125 222.93875 33.5625 223.9375 C33 227 33 227 32 228 C29.5625 228.1875 29.5625 228.1875 27 228 C25 226 25 226 24.875 223.375 C24.91625 222.59125 24.9575 221.8075 25 221 C24.34 220.67 23.68 220.34 23 220 C22.79375 220.804375 22.5875 221.60875 22.375 222.4375 C19.52077552 229.83253615 14.87882039 235.78612025 8.8125 240.8125 C4.67776321 242.55827776 1.27698649 242.22737465 -3 241 C-6.75549225 239.00290561 -8.72890856 236.65308392 -10.375 232.6875 C-10.58125 231.800625 -10.7875 230.91375 -11 230 C-12.134375 230.165 -13.26875 230.33 -14.4375 230.5 C-19.6567151 230.49072964 -22.39984807 227.88000577 -26.01171875 224.35546875 C-29.75669439 219.91888661 -31.71110574 215.50375026 -32.375 209.75 C-31.98466626 206.88755255 -31.22733781 204.60809284 -30 202 C-31.32 201.01 -32.64 200.02 -34 199 C-33.89055285 203.45885926 -33.75982334 207.91684156 -33.625 212.375 C-33.57859375 214.28152344 -33.57859375 214.28152344 -33.53125 216.2265625 C-33.49257813 217.43828125 -33.45390625 218.65 -33.4140625 219.8984375 C-33.3826416 221.01911621 -33.3512207 222.13979492 -33.31884766 223.29443359 C-33.26588797 226.14710412 -33.26588797 226.14710412 -31 228 C-31.29208843 229.34297179 -31.63819304 230.67410988 -32 232 C-32.12618444 235.20017752 -32.24776437 238.39662065 -32.25390625 241.59960938 C-32.328125 243.56640625 -32.328125 243.56640625 -33 247 C-35.546875 248.96484375 -35.546875 248.96484375 -38 250 C-38 249.34 -38 248.68 -38 248 C-40.64 247.67 -43.28 247.34 -46 247 C-45.67 245.35 -45.34 243.7 -45 242 C-43.68 241.67 -42.36 241.34 -41 241 C-41 241.99 -41 242.98 -41 244 C-40.01 244 -39.02 244 -38 244 C-38.33 230.14 -38.66 216.28 -39 202 C-40.32 202 -41.64 202 -43 202 C-42.67 200.68 -42.34 199.36 -42 198 C-42.9075 198.061875 -43.815 198.12375 -44.75 198.1875 C-48.28982642 197.98327924 -49.44931155 197.35448165 -52 195 C-52.33 195.99 -52.66 196.98 -53 198 C-53.99 198 -54.98 198 -56 198 C-55.97679687 197.26394531 -55.95359375 196.52789062 -55.9296875 195.76953125 C-55.91164063 194.79371094 -55.89359375 193.81789063 -55.875 192.8125 C-55.85179687 191.84957031 -55.82859375 190.88664063 -55.8046875 189.89453125 C-56.0086456 186.87187222 -56.73125368 184.73230015 -58 182 C-58.99 182.33 -59.98 182.66 -61 183 C-61 182.34 -61 181.68 -61 181 C-61.99 181 -62.98 181 -64 181 C-65.28507973 189.67428819 -65.54377523 197.47726062 -63.37890625 206.015625 C-62.89496111 208.55010057 -63.2121266 210.55759247 -64 213 C-67.60654039 210.59563974 -67.85452932 209.05320393 -69 205 C-69.33 207.31 -69.66 209.62 -70 212 C-70.99 212.33 -71.98 212.66 -73 213 C-72.88519969 210.14509764 -72.75847036 207.2915412 -72.625 204.4375 C-72.5940625 203.63763672 -72.563125 202.83777344 -72.53125 202.01367188 C-72.28743436 197.03576917 -71.56368612 192.73555351 -70 188 C-72.97 188.99 -75.94 189.98 -79 191 C-79.10476454 193.9585307 -79.10476454 193.9585307 -78.4375 196.625 C-78.2209375 197.800625 -78.2209375 197.800625 -78 199 C-78.33 199.33 -78.66 199.66 -79 200 C-80.64869317 199.96219927 -82.29594032 199.84529698 -83.9375 199.6875 C-84.83339844 199.60886719 -85.72929687 199.53023437 -86.65234375 199.44921875 C-89 199 -89 199 -91 197 C-91.50244141 195.12060547 -91.50244141 195.12060547 -91.8515625 192.8671875 C-91.98046875 192.06152344 -92.109375 191.25585938 -92.2421875 190.42578125 C-92.36851562 189.58402344 -92.49484375 188.74226562 -92.625 187.875 C-92.82609375 186.60076172 -92.82609375 186.60076172 -93.03125 185.30078125 C-93.36144986 183.20165356 -93.68167259 181.10096089 -94 179 C-102.12828737 181.48242099 -102.12828737 181.48242099 -108 187 C-107.96564228 189.36209317 -107.68870473 191.55594582 -107.26171875 193.87890625 C-107 196 -107 196 -108 199 C-111.09173752 200.54586876 -113.59429552 200.29359521 -117 200 C-119.99455648 197.95109294 -120.83302657 196.49048445 -122 193.0625 C-122 190 -122 190 -120.4375 187.125 C-118 185 -118 185 -114.75 184.6875 C-113.38875 184.8421875 -113.38875 184.8421875 -112 185 C-111.67 184.01 -111.34 183.02 -111 182 C-110.01390621 180.98628454 -109.01223851 179.98760984 -108 179 C-107.06624374 177.67169884 -106.17049112 176.31595419 -105.3125 174.9375 C-104.87550781 174.24527344 -104.43851562 173.55304688 -103.98828125 172.83984375 C-102.84226424 171.05442868 -102.84226424 171.05442868 -103 169 C-103.62648438 168.82984375 -104.25296875 168.6596875 -104.8984375 168.484375 C-106.12433594 168.12085938 -106.12433594 168.12085938 -107.375 167.75 C-108.59316406 167.40195312 -108.59316406 167.40195312 -109.8359375 167.046875 C-112.51560631 165.75057312 -112.75138809 164.61903962 -114 162 C-115.31773805 161.30301459 -116.65299041 160.63858232 -118 160 C-119.921875 158.125 -119.921875 158.125 -121.75 156 C-122.36359375 155.29875 -122.9771875 154.5975 -123.609375 153.875 C-125 152 -125 152 -125 150 C-128.1939907 149.06059097 -131.11276305 148.83555643 -134.4375 148.8125 C-135.36433594 148.79832031 -136.29117188 148.78414062 -137.24609375 148.76953125 C-140.18381908 149.01538344 -142.29492366 149.87893648 -145 151 C-147.8125 150.625 -147.8125 150.625 -150 150 C-150 147 -150 147 -148 145 C-144.375 144.875 -144.375 144.875 -141 145 C-140.83318891 142.08347826 -140.83318891 142.08347826 -141 139 C-143.38510347 136.61489653 -145.17624596 136.1951504 -148.375 135.1875 C-152.87961658 133.60527557 -155.64616746 132.37140329 -158 128 C-158 127.01 -158 126.02 -158 125 C-159.15628906 125.05220703 -159.15628906 125.05220703 -160.3359375 125.10546875 C-161.33882812 125.13253906 -162.34171875 125.15960938 -163.375 125.1875 C-164.87160156 125.23970703 -164.87160156 125.23970703 -166.3984375 125.29296875 C-167.25695312 125.19628906 -168.11546875 125.09960938 -169 125 C-169.66 124.01 -170.32 123.02 -171 122 C-169 120 -169 120 -166.86328125 119.734375 C-161.5367321 119.76700317 -156.9794618 120.02896304 -152 122 C-150 125 -150 125 -150 128 C-149.01 128.33 -148.02 128.66 -147 129 C-147.33 126.03 -147.66 123.06 -148 120 C-148.66 120 -149.32 120 -150 120 C-150 119.01 -150 118.02 -150 117 C-150.66 117 -151.32 117 -152 117 C-152.33 114.69 -152.66 112.38 -153 110 C-154.8871875 110.309375 -154.8871875 110.309375 -156.8125 110.625 C-160.4014758 111.21335669 -160.75073878 111.16617415 -164 109 C-163.34 107.35 -162.68 105.7 -162 104 C-160.35 104.33 -158.7 104.66 -157 105 C-157 105.66 -157 106.32 -157 107 C-153.51400668 106.54086322 -153.51400668 106.54086322 -150 105 C-148.45913678 101.48599332 -148.45913678 101.48599332 -148 98 C-150.64 97.01 -153.28 96.02 -156 95 C-156 93.35 -156 91.7 -156 90 C-152.535 89.01 -152.535 89.01 -149 88 C-149 87.34 -149 86.68 -149 86 C-144.545 85.505 -144.545 85.505 -140 85 C-140 84.34 -140 83.68 -140 83 C-138.390625 81.6328125 -138.390625 81.6328125 -136.25 80.125 C-133.82565509 78.37741569 -131.74667413 76.74667413 -129.625 74.625 C-129.08875 74.08875 -128.5525 73.5525 -128 73 C-127.34 73 -126.68 73 -126 73 C-124.50178941 69.62902617 -124 67.79557881 -124 64 C-126.19556729 61.80232847 -126.19556729 61.80232847 -129.0625 59.75 C-134.02683063 55.8662535 -138.02096031 51.85577725 -142 47 C-143.18306465 45.64195669 -144.37060255 44.28779777 -145.5625 42.9375 C-146.13226563 42.28265625 -146.70203125 41.6278125 -147.2890625 40.953125 C-148.43877949 39.64066269 -149.60051446 38.33864046 -150.7734375 37.046875 C-151.32257813 36.43328125 -151.87171875 35.8196875 -152.4375 35.1875 C-152.93121094 34.64480469 -153.42492187 34.10210937 -153.93359375 33.54296875 C-155 32 -155 32 -155 29 C-155.66 28.814375 -156.32 28.62875 -157 28.4375 C-163.3242227 25.40714329 -168.09380527 19.90619473 -173 15 C-174.10331224 14.18634014 -175.20749873 13.37386457 -176.3125 12.5625 C-179 10 -179 10 -179.5625 6.875 C-178.96732602 3.83299968 -178.43901956 2.82926467 -176 1 C-172.12032356 2.14626804 -168.99587647 3.22604031 -166 6 C-165.67 6.99 -165.34 7.98 -165 9 C-164.01 9.33 -163.02 9.66 -162 10 C-161 12 -160 14 -159 16 C-156.64587234 18.60414714 -156.64587234 18.60414714 -154 21 C-153.2575 21.763125 -152.515 22.52625 -151.75 23.3125 C-149.34352751 25.66427994 -146.91585221 27.97445894 -144.4375 30.25 C-143.69371094 30.93578125 -142.94992188 31.6215625 -142.18359375 32.328125 C-140.16579382 34.11642117 -140.16579382 34.11642117 -137.921875 34.4609375 C-135.07972004 35.25812731 -134.35495636 36.92451664 -132.8125 39.375 C-132.30332031 40.16648438 -131.79414063 40.95796875 -131.26953125 41.7734375 C-130 44 -130 44 -129 47 C-127.34614767 48.34919532 -125.678298 49.68133728 -124 51 C-122.1875 53.25 -122.1875 53.25 -121 55 C-118.525 54.505 -118.525 54.505 -116 54 C-116.2475 53.113125 -116.495 52.22625 -116.75 51.3125 C-117 48 -117 48 -115.0625 45.125 C-114.381875 44.42375 -113.70125 43.7225 -113 43 C-109.47930015 43.58678331 -107.28700157 44.35649921 -104 46 C-104 50.62 -104 55.24 -104 60 C-98.52059679 61.08219949 -98.52059679 61.08219949 -95 61 C-93.68 61 -92.36 61 -91 61 C-91.66 60.34 -92.32 59.68 -93 59 C-95.28292788 55.29024219 -96.02040105 51.19828123 -97 47 C-95.02 47 -93.04 47 -91 47 C-90.74969023 44.58380177 -90.74969023 44.58380177 -91 42 C-92.485 41.01 -92.485 41.01 -94 40 C-94 39.01 -94 38.02 -94 37 C-92.02 36.67 -90.04 36.34 -88 36 C-88.350625 35.113125 -88.70125 34.22625 -89.0625 33.3125 C-90.01755602 29.93796874 -89.97151132 28.30313848 -89 25 C-87.35 24.67 -85.7 24.34 -84 24 C-83.67 22.35 -83.34 20.7 -83 19 C-82.34 19 -81.68 19 -81 19 C-80.505 17.515 -80.505 17.515 -80 16 C-79.34 15.34 -78.68 14.68 -78 14 C-77.83312552 11.41645782 -77.83312552 11.41645782 -78 9 C-75.23723823 9.52268466 -72.6739124 10.10869587 -70 11 C-69.01 11 -68.02 11 -67 11 C-67 10.01 -67 9.02 -67 8 C-66.34 8 -65.68 8 -65 8 C-65 7.01 -65 6.02 -65 5 C-62 6 -62 6 -61 8 C-57.91395578 7.56938918 -55.24908704 7.10675159 -52.375 5.875 C-50 5 -50 5 -47.9375 5 C-46 6 -46 6 -44.3125 8.9375 C-41.40160206 12.79247294 -39.42371115 13.01738946 -34.828125 13.7734375 C-34.22484375 13.84820312 -33.6215625 13.92296875 -33 14 C-33 15.32 -33 16.64 -33 18 C-32.34 18.33 -31.68 18.66 -31 19 C-30.67 16.03 -30.34 13.06 -30 10 C-28.68 9.67 -27.36 9.34 -26 9 C-25.3125 10.625 -25.3125 10.625 -25 13 C-25.515625 13.99 -26.03125 14.98 -26.5625 16 C-28.36024441 18.85269196 -28.36024441 18.85269196 -27.1875 21.375 C-26.5996875 22.179375 -26.5996875 22.179375 -26 23 C-25.01 22.67 -24.02 22.34 -23 22 C-22.62875 21.154375 -22.2575 20.30875 -21.875 19.4375 C-20.946875 18.2309375 -20.946875 18.2309375 -20 17 C-17.67508407 16.78743626 -15.47282497 16.94314996 -13.14453125 17.08984375 C-10.76608139 17.2166651 -10.76608139 17.2166651 -8.75 15 C-8.1725 14.34 -7.595 13.68 -7 13 C-4.25 12.75 -4.25 12.75 -2 13 C-2 13.66 -2 14.32 -2 15 C-0.35 14.67 1.3 14.34 3 14 C2.566875 12.1128125 2.566875 12.1128125 2.125 10.1875 C1.96257812 9.47980469 1.80015625 8.77210937 1.6328125 8.04296875 C1.01992277 5.72257026 1.01992277 5.72257026 -1 3 C-0.67 2.01 -0.34 1.02 0 0 Z M-89 58 C-88 60 -88 60 -88 60 Z M65 64 C62.75378427 66.74605843 62.75378427 66.74605843 63.0625 69.5 C63.83945091 72.14894314 63.83945091 72.14894314 66.125 73.9375 C70.00574613 75.37168879 72.20503899 74.413809 76 73 C76 73.66 76 74.32 76 75 C76.66 74.67 77.32 74.34 78 74 C77.87580462 72.07205913 77.87580462 72.07205913 77 70 C74.76957469 68.46046884 74.76957469 68.46046884 72.0625 67.3125 C71.16660156 66.89613281 70.27070313 66.47976562 69.34765625 66.05078125 C68.57292969 65.70402344 67.79820312 65.35726562 67 65 C66.34 64.67 65.68 64.34 65 64 Z M79 68 C79 68.99 79 69.98 79 71 C81.97 71.495 81.97 71.495 85 72 C84.67 70.02 84.34 68.04 84 66 C81.67642489 65.81509993 81.67642489 65.81509993 79 68 Z M99 213 C99 215.31 99 217.62 99 220 C99.66 220 100.32 220 101 220 C100.67 217.69 100.34 215.38 100 213 C99.67 213 99.34 213 99 213 Z " fill="#000000" transform="translate(327,70)"/>
<path d="M0 0 C0.76183594 0.07863281 1.52367187 0.15726563 2.30859375 0.23828125 C4.72368303 0.71962487 6.46701544 1.39866434 8.5625 2.6875 C9.6034066 4.32892963 10.60754326 5.99462215 11.5625 7.6875 C12.2225 8.0175 12.8825 8.3475 13.5625 8.6875 C15.88021409 15.51865732 16.18206334 21.59095744 13.5 28.375 C8.15304875 34.75684503 2.01855006 38.15375597 -6.3125 38.96875 C-10.25001769 38.61437341 -11.81655797 37.34060724 -14.8125 34.8125 C-15.68648437 34.09320313 -16.56046875 33.37390625 -17.4609375 32.6328125 C-18.43933594 31.66988281 -18.43933594 31.66988281 -19.4375 30.6875 C-19.4375 30.0275 -19.4375 29.3675 -19.4375 28.6875 C-20.0975 28.6875 -20.7575 28.6875 -21.4375 28.6875 C-22.44875434 23.75763508 -23.00166481 18.70761061 -22.4375 13.6875 C-21.7775 12.6975 -21.1175 11.7075 -20.4375 10.6875 C-20.05250109 9.03200469 -19.70956865 7.3652567 -19.4375 5.6875 C-18.7775 5.6875 -18.1175 5.6875 -17.4375 5.6875 C-17.1075 4.6975 -16.7775 3.7075 -16.4375 2.6875 C-14.4765625 1.9921875 -14.4765625 1.9921875 -12.0625 1.5625 C-2.26724067 -0.25616379 -2.26724067 -0.25616379 0 0 Z " fill="#000000" transform="translate(149.4375,249.3125)"/>
<path d="M0 0 C1.1446875 0.3403125 1.1446875 0.3403125 2.3125 0.6875 C2.49701025 11.24558656 2.49701025 11.24558656 1.3125 15.6875 C3.7875 16.6775 3.7875 16.6775 6.3125 17.6875 C5.9825 19.3375 5.6525 20.9875 5.3125 22.6875 C4.590625 22.23375 3.86875 21.78 3.125 21.3125 C0.39203973 19.63679496 0.39203973 19.63679496 -2.4375 18.625 C-4.6875 17.6875 -4.6875 17.6875 -5.6875 15.6875 C-5.83583651 13.5451785 -5.90877413 11.39725871 -5.9375 9.25 C-5.97617187 7.51943359 -5.97617187 7.51943359 -6.015625 5.75390625 C-5.6875 2.6875 -5.6875 2.6875 -4.33984375 0.7578125 C-2.6875 -0.3125 -2.6875 -0.3125 0 0 Z " fill="#010101" transform="translate(407.6875,49.3125)"/>
<path d="M0 0 C1.2375 -0.020625 2.475 -0.04125 3.75 -0.0625 C4.44609375 -0.07410156 5.1421875 -0.08570313 5.859375 -0.09765625 C8.03292403 0.00150201 9.91306537 0.40306149 12 1 C13.55271035 8.13909214 12.50444331 12.63785614 9 19 C7.68 18.67 6.36 18.34 5 18 C4.96132812 16.73542969 4.96132812 16.73542969 4.921875 15.4453125 C4.83679688 13.80175781 4.83679688 13.80175781 4.75 12.125 C4.70359375 11.03445312 4.6571875 9.94390625 4.609375 8.8203125 C4.31153872 5.8667935 4.31153872 5.8667935 1.953125 4.6171875 C0.98632812 4.31167969 0.98632812 4.31167969 0 4 C0 2.68 0 1.36 0 0 Z " fill="#010101" transform="translate(229,36)"/>
<path d="M0 0 C0.99 0 1.98 0 3 0 C2.814375 0.94875 2.62875 1.8975 2.4375 2.875 C1.71313368 5.89868793 1.71313368 5.89868793 3 8 C3.46280992 14.24793388 3.46280992 14.24793388 1.5 17.4375 C1.005 17.953125 0.51 18.46875 0 19 C-2.98828314 18.67694236 -4.61321245 18.34810879 -6.875 16.3125 C-8.42489 13.126615 -7.99856087 11.35231148 -7 8 C-5.08268479 5.47262996 -4.08494591 5.0283153 -1 4 C-0.26676204 1.98491642 -0.26676204 1.98491642 0 0 Z " fill="#010101" transform="translate(276,55)"/>
<path d="M0 0 C0.99 0 1.98 0 3 0 C4.38226016 2.76452033 4.09525387 5.0461363 4.0625 8.125 C4.05347656 9.22070312 4.04445312 10.31640625 4.03515625 11.4453125 C4.02355469 12.28835937 4.01195312 13.13140625 4 14 C-2.625 15.25 -2.625 15.25 -6 13 C-5.67 11.35 -5.34 9.7 -5 8 C-3.68 7.67 -2.36 7.34 -1 7 C-1.020625 6.030625 -1.04125 5.06125 -1.0625 4.0625 C-1 1 -1 1 0 0 Z " fill="#020202" transform="translate(204,91)"/>
<path d="M0 0 C0.66 0.33 1.32 0.66 2 1 C2.21781513 6.98991614 1.84695485 12.85625943 1.25 18.8125 C1.18828613 19.55363037 1.12657227 20.29476074 1.06298828 21.05834961 C0.67171251 24.63799417 0.24377911 26.7053572 -2.078125 29.51171875 C-2.71234375 30.00285156 -3.3465625 30.49398438 -4 31 C-4.66 30.01 -5.32 29.02 -6 28 C-5.42588714 25.2619233 -4.77487815 22.67542388 -4 20 C-3.814375 19.071875 -3.62875 18.14375 -3.4375 17.1875 C-3 15 -3 15 -2 12 C-1.69760965 9.13569136 -1.49234231 6.27080066 -1.28125 3.3984375 C-1 1 -1 1 0 0 Z " fill="#020202" transform="translate(438,307)"/>
<path d="M0 0 C0.66 0 1.32 0 2 0 C2.75 1.75 2.75 1.75 3 4 C0.27783998 7.70213762 -2.58867543 8.98200202 -7 10 C-9.69253453 10.14580512 -12.29946828 10.09312178 -15 10 C-14 8 -14 8 -12 5 C-11.34 5 -10.68 5 -10 5 C-9.67 4.34 -9.34 3.68 -9 3 C-6.93359375 2.3671875 -6.93359375 2.3671875 -4.4375 1.875 C-3.61121094 1.70742187 -2.78492187 1.53984375 -1.93359375 1.3671875 C-1.29550781 1.24601562 -0.65742187 1.12484375 0 1 C0 0.67 0 0.34 0 0 Z " fill="#010101" transform="translate(122,117)"/>
<path d="M0 0 C2.375 0.375 2.375 0.375 4.375 2.375 C4.625 4.875 4.625 4.875 4.375 7.375 C2.375 9.375 2.375 9.375 -1.25 9.5 C-2.36375 9.45875 -3.4775 9.4175 -4.625 9.375 C-5.285 7.725 -5.945 6.075 -6.625 4.375 C-3.3356599 0.47652284 -3.3356599 0.47652284 0 0 Z " fill="#020202" transform="translate(185.625,309.625)"/>
<path d="M0 0 C-1.36983503 3.16115776 -1.9890638 3.9927092 -5 6 C-5.99 6 -6.98 6 -8 6 C-8.33 6.99 -8.66 7.98 -9 9 C-9.66 9 -10.32 9 -11 9 C-11.33 9.99 -11.66 10.98 -12 12 C-12.66 12 -13.32 12 -14 12 C-14.33 12.66 -14.66 13.32 -15 14 C-15.99 13.67 -16.98 13.34 -18 13 C-18.6875 10.9375 -18.6875 10.9375 -19 9 C-15 8 -15 8 -11 7 C-11 6.01 -11 5.02 -11 4 C-7.54721936 0.79384655 -4.6253482 0 0 0 Z " fill="#010101" transform="translate(198,230)"/>
<path d="M0 0 C3.375 -0.125 3.375 -0.125 7 0 C9.1385485 2.1385485 9.42655063 3.13275314 10 6 C10.66 5.67 11.32 5.34 12 5 C12.66 6.65 13.32 8.3 14 10 C12.68 10 11.36 10 10 10 C10 9.34 10 8.68 10 8 C7.69 8 5.38 8 3 8 C2.67 7.01 2.34 6.02 2 5 C1.34 5 0.68 5 0 5 C0 3.35 0 1.7 0 0 Z " fill="#010101" transform="translate(224,73)"/>
<path d="M0 0 C0.66 0 1.32 0 2 0 C2.0816082 2.37570543 2.14077222 4.74855841 2.1875 7.125 C2.21263672 7.79015625 2.23777344 8.4553125 2.26367188 9.140625 C2.33320714 13.86902292 1.40278375 16.95121479 -1 21 C-1.66 21 -2.32 21 -3 21 C-3.37369729 13.52605426 -2.04061541 7.17859349 0 0 Z " fill="#020202" transform="translate(268,305)"/>
<path d="M0 0 C1 1 1 1 1.125 4 C1 7 1 7 0 8 C-2.9375 8.25 -2.9375 8.25 -6 8 C-8 5 -8 5 -7.75 2.375 C-7.5025 1.59125 -7.255 0.8075 -7 0 C-4.31633121 -1.3418344 -2.84719317 -0.73004953 0 0 Z " fill="#010101" transform="translate(293,69)"/>
<path d="M0 0 C0.3125 2.25 0.3125 2.25 0 5 C-2.5 7.3125 -2.5 7.3125 -5 9 C-6.32 8.34 -7.64 7.68 -9 7 C-9 5.35 -9 3.7 -9 2 C-3.375 -1.125 -3.375 -1.125 0 0 Z " fill="#010101" transform="translate(328,20)"/>
<path d="M0 0 C-1.1875 2.5 -1.1875 2.5 -3 5 C-5.6875 5.3125 -5.6875 5.3125 -8 5 C-8.33 5.99 -8.66 6.98 -9 8 C-9.99 8 -10.98 8 -12 8 C-12.625 6.125 -12.625 6.125 -13 4 C-8.4937314 -0.5062686 -6.36132812 -1.59033203 0 0 Z " fill="#010101" transform="translate(317,330)"/>
<path d="M0 0 C0.598125 0.20625 1.19625 0.4125 1.8125 0.625 C1.8125 2.605 1.8125 4.585 1.8125 6.625 C-0.1675 7.615 -0.1675 7.615 -2.1875 8.625 C-3.5075 7.635 -4.8275 6.645 -6.1875 5.625 C-5.875 3.75 -5.875 3.75 -5.1875 1.625 C-2.1875 -0.375 -2.1875 -0.375 0 0 Z " fill="#020202" transform="translate(432.1875,354.375)"/>
<path d="M0 0 C0 0.99 0 1.98 0 3 C-8.42857143 5.42857143 -8.42857143 5.42857143 -13 4 C-13 2.68 -13 1.36 -13 0 C-4.57142857 -1.28571429 -4.57142857 -1.28571429 0 0 Z " fill="#020202" transform="translate(260,73)"/>
<path d="M0 0 C0.66 0 1.32 0 2 0 C2 6.6 2 13.2 2 20 C1.01 20.33 0.02 20.66 -1 21 C-0.67 16.38 -0.34 11.76 0 7 C-0.66 6.67 -1.32 6.34 -2 6 C-1.34 4.02 -0.68 2.04 0 0 Z " fill="#040404" transform="translate(423,307)"/>
<path d="M0 0 C0.99 0.66 1.98 1.32 3 2 C2.6875 4.375 2.6875 4.375 2 7 C-1 9 -1 9 -5 9 C-5 8.34 -5 7.68 -5 7 C-5.99 7 -6.98 7 -8 7 C-8 6.01 -8 5.02 -8 4 C-6.68 4.33 -5.36 4.66 -4 5 C-2.68 3.35 -1.36 1.7 0 0 Z " fill="#010101" transform="translate(414,99)"/>
<path d="M0 0 C0.66 0 1.32 0 2 0 C2.05789006 3.45826342 2.09355821 6.91640293 2.125 10.375 C2.14175781 11.35984375 2.15851563 12.3446875 2.17578125 13.359375 C2.18222656 14.30039062 2.18867188 15.24140625 2.1953125 16.2109375 C2.20578613 17.08024902 2.21625977 17.94956055 2.22705078 18.84521484 C2 21 2 21 0 23 C-0.93959624 17.70346121 -0.98841115 12.91331483 -0.5625 7.5625 C-0.51029297 6.83095703 -0.45808594 6.09941406 -0.40429688 5.34570312 C-0.27615124 3.56331378 -0.1390184 1.7815743 0 0 Z " fill="#030303" transform="translate(254,294)"/>
<path d="M0 0 C0.99 0 1.98 0 3 0 C3.125 6.75 3.125 6.75 2 9 C0.02 9 -1.96 9 -4 9 C-3.47557578 5.2241456 -2.67345333 2.77627845 0 0 Z " fill="#020202" transform="translate(226,289)"/>
<path d="M0 0 C0.99 0 1.98 0 3 0 C4.60725635 3.21451269 4.05748185 6.43612536 4 10 C2.68 10.33 1.36 10.66 0 11 C-1.26026798 8.47946405 -0.91874445 7.1457902 -0.5625 4.375 C-0.46066406 3.55773437 -0.35882813 2.74046875 -0.25390625 1.8984375 C-0.17011719 1.27195312 -0.08632813 0.64546875 0 0 Z " fill="#010101" transform="translate(367,73)"/>
<path d="M0 0 C-0.3125 1.875 -0.3125 1.875 -1 4 C-4.22791555 6.1519437 -5.28400809 6.20086443 -9 6 C-9 3 -9 3 -7.875 1.3125 C-5.23540902 -0.53521368 -3.14195927 -0.20946395 0 0 Z " fill="#020202" transform="translate(206,244)"/>
<path d="M0 0 C0.99 0.33 1.98 0.66 3 1 C3.25 6.625 3.25 6.625 1 10 C0.01 10 -0.98 10 -2 10 C-2.1953125 3.9453125 -2.1953125 3.9453125 -2 2 C-1.34 1.34 -0.68 0.68 0 0 Z " fill="#020202" transform="translate(387,44)"/>
<path d="M0 0 C1.875 0.25 1.875 0.25 4 1 C5.25 3.0625 5.25 3.0625 6 5 C5.01 6.485 5.01 6.485 4 8 C2.68 7.67 1.36 7.34 0 7 C-1.125 2.25 -1.125 2.25 0 0 Z " fill="#010101" transform="translate(303,310)"/>
<path d="M0 0 C0.99 0 1.98 0 3 0 C3.05399736 1.45792884 3.09279177 2.91642712 3.125 4.375 C3.14820313 5.18710937 3.17140625 5.99921875 3.1953125 6.8359375 C3 9 3 9 1 11 C0.01 11 -0.98 11 -2 11 C-2.33 9.68 -2.66 8.36 -3 7 C-2.01 6.67 -1.02 6.34 0 6 C0 4.02 0 2.04 0 0 Z " fill="#020202" transform="translate(408,293)"/>
<path d="M0 0 C2.97 0.495 2.97 0.495 6 1 C6.625 3.375 6.625 3.375 7 6 C6.34 6.66 5.68 7.32 5 8 C2.5 6.8125 2.5 6.8125 0 5 C-0.3125 2.3125 -0.3125 2.3125 0 0 Z " fill="#020202" transform="translate(494,293)"/>
<path d="M0 0 C0.66 0 1.32 0 2 0 C2 3.3 2 6.6 2 10 C0.02 10.99 0.02 10.99 -2 12 C-2.99266409 9.31980696 -3.066309 8.19419064 -2.125 5.4375 C-1.75375 4.633125 -1.3825 3.82875 -1 3 C-0.67 2.01 -0.34 1.02 0 0 Z " fill="#010101" transform="translate(240,280)"/>
<path d="M0 0 C2.31 0.66 4.62 1.32 7 2 C6.67 3.32 6.34 4.64 6 6 C3.69 5.67 1.38 5.34 -1 5 C-0.67 3.35 -0.34 1.7 0 0 Z " fill="#020202" transform="translate(123,163)"/>
<path d="M0 0 C2.475 0.495 2.475 0.495 5 1 C5 2.98 5 4.96 5 7 C3.35 7 1.7 7 0 7 C0 4.69 0 2.38 0 0 Z " fill="#020202" transform="translate(341,65)"/>
<path d="M0 0 C0.99 0 1.98 0 3 0 C3 0.66 3 1.32 3 2 C4.32 1.67 5.64 1.34 7 1 C6.75 2.875 6.75 2.875 6 5 C4.0625 6.3125 4.0625 6.3125 2 7 C1.34 6.67 0.68 6.34 0 6 C0 4.02 0 2.04 0 0 Z " fill="#020202" transform="translate(151,10)"/>
<path d="M0 0 C1.65 0.33 3.3 0.66 5 1 C5.33 1.99 5.66 2.98 6 4 C5.34 4.66 4.68 5.32 4 6 C1.875 5.625 1.875 5.625 0 5 C0 3.33333333 0 1.66666667 0 0 Z " fill="#010101" transform="translate(414,336)"/>
<path d="M0 0 C1.32 0 2.64 0 4 0 C4 1.65 4 3.3 4 5 C2.68 5.33 1.36 5.66 0 6 C-0.38218767 4.34385343 -0.71395102 2.67542976 -1 1 C-0.67 0.67 -0.34 0.34 0 0 Z " fill="#010101" transform="translate(381,336)"/>
<path d="M0 0 C0.99 0 1.98 0 3 0 C3 1.98 3 3.96 3 6 C1.35 6 -0.3 6 -2 6 C-1.125 1.125 -1.125 1.125 0 0 Z " fill="#010101" transform="translate(452,323)"/>
<path d="M0 0 C2.31 0.33 4.62 0.66 7 1 C6.67 1.99 6.34 2.98 6 4 C4.02 4 2.04 4 0 4 C0 2.68 0 1.36 0 0 Z " fill="#000000" transform="translate(163,163)"/>
<path d="M0 0 C0.99 0.99 1.98 1.98 3 3 C2.34 4.32 1.68 5.64 1 7 C0.34 7 -0.32 7 -1 7 C-1.625 4.625 -1.625 4.625 -2 2 C-1.34 1.34 -0.68 0.68 0 0 Z " fill="#010101" transform="translate(269,275)"/>
<path d="M0 0 C1.32 0.66 2.64 1.32 4 2 C3.67 3.32 3.34 4.64 3 6 C1.68 5.67 0.36 5.34 -1 5 C-0.67 3.35 -0.34 1.7 0 0 Z " fill="#020202" transform="translate(376,63)"/>
<path d="M0 0 C1.98 0.495 1.98 0.495 4 1 C3.67 2.65 3.34 4.3 3 6 C1.68 5.67 0.36 5.34 -1 5 C-0.67 3.35 -0.34 1.7 0 0 Z " fill="#020202" transform="translate(291,55)"/>
<path d="M0 0 C1.65 0 3.3 0 5 0 C5.33 0.99 5.66 1.98 6 3 C3.69 3.33 1.38 3.66 -1 4 C-0.67 2.68 -0.34 1.36 0 0 Z " fill="#010101" transform="translate(349,302)"/>
<path d="M0 0 C0.66 0.33 1.32 0.66 2 1 C0.73058503 4.91402949 -0.51167694 6.79072873 -4 9 C-3.46930939 5.17902761 -2.50298434 2.93828597 0 0 Z " fill="#000000" transform="translate(359,78)"/>
<path d="M0 0 C0.66 0 1.32 0 2 0 C2 1.98 2 3.96 2 6 C0.35 5.67 -1.3 5.34 -3 5 C-1.125 1.125 -1.125 1.125 0 0 Z " fill="#020202" transform="translate(266,335)"/>
<path d="M0 0 C0.33 0.66 0.66 1.32 1 2 C3.01669827 3.13350534 3.01669827 3.13350534 5 4 C4.67 4.66 4.34 5.32 4 6 C2.68 6 1.36 6 0 6 C0 5.34 0 4.68 0 4 C-0.66 3.67 -1.32 3.34 -2 3 C-1.34 2.01 -0.68 1.02 0 0 Z " fill="#010101" transform="translate(207,50)"/>
<path d="M0 0 C0.99 0.33 1.98 0.66 3 1 C2.34 3.31 1.68 5.62 1 8 C0.34 7.67 -0.32 7.34 -1 7 C-0.67 4.69 -0.34 2.38 0 0 Z " fill="#020202" transform="translate(269,296)"/>
<path d="M0 0 C0.99 0.33 1.98 0.66 3 1 C2.67 2.32 2.34 3.64 2 5 C0.68 4.67 -0.64 4.34 -2 4 C-2 3.01 -2 2.02 -2 1 C-1.34 0.67 -0.68 0.34 0 0 Z " fill="#010101" transform="translate(417,128)"/>
<path d="M0 0 C-0.33 1.32 -0.66 2.64 -1 4 C-2.32 4 -3.64 4 -5 4 C-5 3.01 -5 2.02 -5 1 C-3 0 -3 0 0 0 Z " fill="#020202" transform="translate(182,36)"/>
<path d="M0 0 C1.32 0.66 2.64 1.32 4 2 C3.67 2.99 3.34 3.98 3 5 C1.68 4.34 0.36 3.68 -1 3 C-0.67 2.01 -0.34 1.02 0 0 Z " fill="#010101" transform="translate(228,107)"/>
<path d="M0 0 C0.99 0 1.98 0 3 0 C2.67 1.32 2.34 2.64 2 4 C0.68 4 -0.64 4 -2 4 C-1.34 2.68 -0.68 1.36 0 0 Z " fill="#010101" transform="translate(348,48)"/>
<path d="M0 0 C0.66 0.33 1.32 0.66 2 1 C2 2.32 2 3.64 2 5 C0.68 4.67 -0.64 4.34 -2 4 C-1.34 2.68 -0.68 1.36 0 0 Z " fill="#000000" transform="translate(394,287)"/>
<path d="M0 0 C0.99 0.33 1.98 0.66 3 1 C2.67 1.99 2.34 2.98 2 4 C1.01 3.67 0.02 3.34 -1 3 C-0.67 2.01 -0.34 1.02 0 0 Z " fill="#010101" transform="translate(185,302)"/>
<path d="M0 0 C2.475 0.495 2.475 0.495 5 1 C4.67 1.66 4.34 2.32 4 3 C2.68 2.67 1.36 2.34 0 2 C0 1.34 0 0.68 0 0 Z " fill="#020202" transform="translate(273,286)"/>
<path d="M0 0 C0.99 0 1.98 0 3 0 C3 0.99 3 1.98 3 3 C2.01 3 1.02 3 0 3 C0 2.01 0 1.02 0 0 Z " fill="#020202" transform="translate(236,61)"/>
<path d="M0 0 C0.99 0.33 1.98 0.66 3 1 C3 1.66 3 2.32 3 3 C2.01 3 1.02 3 0 3 C0 2.01 0 1.02 0 0 Z " fill="#010101" transform="translate(385,288)"/>
<path d="M0 0 C0.66 0 1.32 0 2 0 C2.33 1.32 2.66 2.64 3 4 C2.01 3.67 1.02 3.34 0 3 C0 2.01 0 1.02 0 0 Z " fill="#020202" transform="translate(215,246)"/>
<path d="M0 0 C0.99 0.33 1.98 0.66 3 1 C2.34 1 1.68 1 1 1 C0.67 1.66 0.34 2.32 0 3 C0 2.01 0 1.02 0 0 Z " fill="#000000" transform="translate(315,29)"/>
<path d="M0 0 C0.66 0 1.32 0 2 0 C1.67 0.99 1.34 1.98 1 3 C0.67 2.01 0.34 1.02 0 0 Z " fill="#010101" transform="translate(146,17)"/>
<path d="M0 0 C2 1 2 1 2 1 Z " fill="#000000" transform="translate(232,130)"/>
<path d="M0 0 C2 1 2 1 2 1 Z " fill="#000000" transform="translate(409,102)"/>
<path d="" fill="#000000" transform="translate(0,0)"/>
<path d="" fill="#000000" transform="translate(0,0)"/>
<path d="" fill="#000000" transform="translate(0,0)"/>
<path d="" fill="#000000" transform="translate(0,0)"/>
<path d="" fill="#000000" transform="translate(0,0)"/>
<path d="" fill="#000000" transform="translate(0,0)"/>
<path d="" fill="#000000" transform="translate(0,0)"/>
<path d="" fill="#000000" transform="translate(0,0)"/>
<path d="" fill="#000000" transform="translate(0,0)"/>
<path d="" fill="#000000" transform="translate(0,0)"/>
<path d="" fill="#000000" transform="translate(0,0)"/>
<path d="" fill="#000000" transform="translate(0,0)"/>
<path d="" fill="#000000" transform="translate(0,0)"/>
<path d="" fill="#000000" transform="translate(0,0)"/>
<path d="" fill="#000000" transform="translate(0,0)"/>
<path d="" fill="#000000" transform="translate(0,0)"/>
<path d="" fill="#000000" transform="translate(0,0)"/>
<path d="" fill="#000000" transform="translate(0,0)"/>
<path d="" fill="#000000" transform="translate(0,0)"/>
<path d="" fill="#000000" transform="translate(0,0)"/>
<path d="" fill="#000000" transform="translate(0,0)"/>
<path d="" fill="#000000" transform="translate(0,0)"/>
<path d="" fill="#000000" transform="translate(0,0)"/>
<path d="" fill="#000000" transform="translate(0,0)"/>
<path d="" fill="#000000" transform="translate(0,0)"/>
<path d="" fill="#000000" transform="translate(0,0)"/>
<path d="" fill="#000000" transform="translate(0,0)"/>
<path d="" fill="#000000" transform="translate(0,0)"/>
<path d="" fill="#000000" transform="translate(0,0)"/>
<path d="" fill="#000000" transform="translate(0,0)"/>
<path d="" fill="#000000" transform="translate(0,0)"/>
<path d="" fill="#000000" transform="translate(0,0)"/>
<path d="" fill="#000000" transform="translate(0,0)"/>
<path d="" fill="#000000" transform="translate(0,0)"/>
<path d="" fill="#000000" transform="translate(0,0)"/>
<path d="" fill="#000000" transform="translate(0,0)"/>
<path d="" fill="#000000" transform="translate(0,0)"/>
</svg>
